{"title":"Open.Water.2.Adrift.2006.x264.AC3(5.1).Nordic.mkv-Zen_Bud","uid":5835272,"size":2034513205,"categoryP":"video","categoryS":"movies","magnet":"?xt=urn:btih:04e04a8080d47df6a1b02a69ac307388545d6120&amp;dn=Open.Water.2.Adrift.2006.x264.AC3%285.1%29.Nordic.mkv-Zen_Bud&amp;tr=udp%3A%2F%2Ftracker.openbittorrent.com%3A80&amp;tr=udp%3A%2F%2Fopen.demonii.com%3A1337&amp;tr=udp%3A%2F%2Ftracker.coppersurfer.tk%3A6969&amp;tr=udp%3A%2F%2Fexodus.desync.com%3A6969","seeders":0,"leechers":1,"uploader":"Zen_Bud","files":-1,"time":1284708199,"description":"\n*******Open.Water.2.Adrift.2006.x264.AC3(5.1).Nordic.mkv-Zen_Bud******\n\nFormat                           : Matroska\nFile size                        : 1.89 GiB\nDuration                         : 1h 30mn\nOverall bit rate                 : 2 990 Kbps\nWriting application              : HandBrake svn3523\nWriting library                  : libmkv 0.6.4.1\n\nVideo\n\nFormat                           : AVC\nDuration                         : 1h 30mn\nBit rate                         : 2 483 Kbps\nWidth                            : 716 pixels\nHeight                           : 436 pixels\nDisplay aspect ratio             : 2.35:1\nStream size                      : 1.57 GiB (83%)\nWriting library                  : x264 core 104\n\nAudio\n\nFormat                           : AC-3\nDuration                         : 1h 30mn\nBit rate                         : 448 Kbps\nChannel(s)                       : 6 channels\nChannel positions                : Front: L C R, Side: L R, LFE\nSampling rate                    : 48.0 KHz\nBit depth                        : 16 bits\nStream size                      : 291 MiB (15%)\nLanguage                         : English\n\nText #1\nLanguage                         : Danish\n\nText #2\nLanguage                         : Swedish\n\nText #3\nLanguage                         : Norwegian\n\nText #4\nLanguage                         : Finnish\n\nMenu\n00:00:00.000                     : Chapter  1\n00:08:05.760                     : Chapter  2\n\n\n","torrent":{"xt":"urn:btih:04e04a8080d47df6a1b02a69ac307388545d6120","amp;dn":"Open.Water.2.Adrift.2006.x264.AC3%285.1%29.Nordic.mkv-Zen_Bud","amp;tr":["udp%3A%2F%2Ftracker.openbittorrent.com%3A80","udp%3A%2F%2Fopen.demonii.com%3A1337","udp%3A%2F%2Ftracker.coppersurfer.tk%3A6969","udp%3A%2F%2Fexodus.desync.com%3A6969"],"infoHash":"04e04a8080d47df6a1b02a69ac307388545d6120","infoHashBuffer":{"type":"Buffer","data":[4,224,74,128,128,212,125,246,161,176,42,105,172,48,115,136,84,93,97,32]},"announce":[],"urlList":[]}}